<svg width="217" height="95" viewBox="0 0 217 95" fill="none" xmlns="http://www.w3.org/2000/svg">
<g filter="url(#filter0_i_34_266)">
<path d="M69.6875 74.0625H58.6875V93H39.8125V74.0625H0.8125V60.625L40.875 1.625H58.6875V59.0625H69.6875V74.0625ZM39.8125 59.0625V43.5625C39.8125 42.1042 39.8333 40.375 39.875 38.375C39.9583 36.375 40.0417 34.375 40.125 32.375C40.2083 30.375 40.2917 28.6042 40.375 27.0625C40.5 25.4792 40.5833 24.375 40.625 23.75H40.125C39.3333 25.4583 38.5 27.125 37.625 28.75C36.75 30.3333 35.7292 32 34.5625 33.75L17.8125 59.0625H39.8125ZM140.375 47.3125C140.375 54.6875 139.792 61.2708 138.625 67.0625C137.5 72.8542 135.667 77.7708 133.125 81.8125C130.625 85.8542 127.333 88.9375 123.25 91.0625C119.167 93.1875 114.208 94.25 108.375 94.25C101.042 94.25 95.0208 92.3958 90.3125 88.6875C85.6042 84.9375 82.125 79.5625 79.875 72.5625C77.625 65.5208 76.5 57.1042 76.5 47.3125C76.5 37.4375 77.5208 29 79.5625 22C81.6458 14.9583 85.0208 9.5625 89.6875 5.8125C94.3542 2.0625 100.583 0.1875 108.375 0.1875C115.667 0.1875 121.667 2.0625 126.375 5.8125C131.125 9.52083 134.646 14.8958 136.938 21.9375C139.229 28.9375 140.375 37.3958 140.375 47.3125ZM95.6875 47.3125C95.6875 54.2708 96.0625 60.0833 96.8125 64.75C97.6042 69.375 98.9167 72.8542 100.75 75.1875C102.583 77.5208 105.125 78.6875 108.375 78.6875C111.583 78.6875 114.104 77.5417 115.938 75.25C117.812 72.9167 119.146 69.4375 119.938 64.8125C120.729 60.1458 121.125 54.3125 121.125 47.3125C121.125 40.3542 120.729 34.5417 119.938 29.875C119.146 25.2083 117.812 21.7083 115.938 19.375C114.104 17 111.583 15.8125 108.375 15.8125C105.125 15.8125 102.583 17 100.75 19.375C98.9167 21.7083 97.6042 25.2083 96.8125 29.875C96.0625 34.5417 95.6875 40.3542 95.6875 47.3125ZM216.188 74.0625H205.188V93H186.312V74.0625H147.312V60.625L187.375 1.625H205.188V59.0625H216.188V74.0625ZM186.312 59.0625V43.5625C186.312 42.1042 186.333 40.375 186.375 38.375C186.458 36.375 186.542 34.375 186.625 32.375C186.708 30.375 186.792 28.6042 186.875 27.0625C187 25.4792 187.083 24.375 187.125 23.75H186.625C185.833 25.4583 185 27.125 184.125 28.75C183.25 30.3333 182.229 32 181.062 33.75L164.312 59.0625H186.312Z" fill="#E5E5E5"/>
</g>
<defs>
<filter id="filter0_i_34_266" x="0.8125" y="0.1875" width="215.375" height="98.0625" filterUnits="userSpaceOnUse" color-interpolation-filters="sRGB">
<feFlood flood-opacity="0" result="BackgroundImageFix"/>
<feBlend mode="normal" in="SourceGraphic" in2="BackgroundImageFix" result="shape"/>
<feColorMatrix in="SourceAlpha" type="matrix" values="0 0 0 0 0 0 0 0 0 0 0 0 0 0 0 0 0 0 127 0" result="hardAlpha"/>
<feOffset dy="4"/>
<feGaussianBlur stdDeviation="2"/>
<feComposite in2="hardAlpha" operator="arithmetic" k2="-1" k3="1"/>
<feColorMatrix type="matrix" values="0 0 0 0 0 0 0 0 0 0 0 0 0 0 0 0 0 0 0.25 0"/>
<feBlend mode="normal" in2="shape" result="effect1_innerShadow_34_266"/>
</filter>
</defs>
</svg>
