<svg width="104" height="22" viewBox="0 0 104 22" fill="none" xmlns="http://www.w3.org/2000/svg">
<rect x="0.5" y="0.5" width="103" height="21" rx="4.5" fill="white" stroke="#222222"/>
<path opacity="0.1" d="M16.2083 10.4167C16.2083 12.5107 14.5107 14.2083 12.4167 14.2083C10.3226 14.2083 8.625 12.5107 8.625 10.4167C8.625 8.32259 10.3226 6.625 12.4167 6.625C14.5107 6.625 16.2083 8.32259 16.2083 10.4167Z" fill="#222222"/>
<path d="M15.125 13.125L18.375 16.375" stroke="#222222" stroke-width="2" stroke-linecap="round" stroke-linejoin="round"/>
<path d="M16.2083 10.4167C16.2083 12.5107 14.5107 14.2083 12.4167 14.2083C10.3226 14.2083 8.625 12.5107 8.625 10.4167C8.625 8.32259 10.3226 6.625 12.4167 6.625C14.5107 6.625 16.2083 8.32259 16.2083 10.4167Z" stroke="#222222" stroke-width="2"/>
<path d="M25.0972 9.568H23.3812V7.744H29.6092V9.568H27.8932V16H25.0972V9.568ZM33.1533 16.096C32.5213 16.096 31.9573 15.984 31.4613 15.76C30.9733 15.536 30.5933 15.22 30.3213 14.812C30.0493 14.404 29.9133 13.94 29.9133 13.42V9.988H32.3853V13.384C32.3853 13.648 32.4573 13.856 32.6013 14.008C32.7533 14.152 32.9413 14.224 33.1653 14.224C33.3813 14.224 33.5573 14.152 33.6933 14.008C33.8373 13.856 33.9093 13.648 33.9093 13.384V9.988H36.3333V13.42C36.3333 13.948 36.1973 14.416 35.9253 14.824C35.6613 15.224 35.2893 15.536 34.8093 15.76C34.3293 15.984 33.7773 16.096 33.1533 16.096ZM40.1245 16.096C39.4205 16.096 38.8725 15.896 38.4805 15.496C38.0885 15.088 37.8925 14.528 37.8925 13.816V11.476H37.1245V9.988H38.0725L39.1885 7.72H40.4005V9.988H41.7925V11.476H40.4005V13.516C40.4005 13.716 40.4645 13.872 40.5925 13.984C40.7205 14.096 40.9005 14.152 41.1325 14.152C41.3485 14.152 41.5445 14.104 41.7205 14.008L41.8165 15.688C41.6165 15.808 41.3565 15.908 41.0365 15.988C40.7245 16.06 40.4205 16.096 40.1245 16.096ZM45.7501 16.096C45.0781 16.096 44.4781 15.964 43.9501 15.7C43.4301 15.436 43.0221 15.072 42.7261 14.608C42.4381 14.136 42.2941 13.596 42.2941 12.988C42.2941 12.38 42.4421 11.844 42.7381 11.38C43.0341 10.908 43.4421 10.544 43.9621 10.288C44.4901 10.032 45.0901 9.904 45.7621 9.904C46.4421 9.904 47.0421 10.036 47.5621 10.3C48.0901 10.556 48.4981 10.916 48.7861 11.38C49.0741 11.844 49.2181 12.38 49.2181 12.988C49.2181 13.604 49.0701 14.148 48.7741 14.62C48.4861 15.084 48.0781 15.448 47.5501 15.712C47.0301 15.968 46.4301 16.096 45.7501 16.096ZM45.7741 14.296C46.1021 14.296 46.3701 14.176 46.5781 13.936C46.7941 13.688 46.9021 13.372 46.9021 12.988C46.9021 12.604 46.7941 12.292 46.5781 12.052C46.3701 11.804 46.1021 11.68 45.7741 11.68C45.4461 11.68 45.1741 11.804 44.9581 12.052C44.7501 12.292 44.6461 12.604 44.6461 12.988C44.6461 13.372 44.7501 13.688 44.9581 13.936C45.1741 14.176 45.4461 14.296 45.7741 14.296ZM50.1176 10.072H52.6496V11.296C52.8336 10.824 53.0816 10.476 53.3936 10.252C53.7136 10.02 54.0856 9.904 54.5096 9.904L54.8576 11.86C54.0976 11.86 53.5376 11.944 53.1776 12.112C52.8256 12.272 52.6496 12.528 52.6496 12.88V16H50.1176V10.072ZM57.8913 7.744H63.5793V9.568H60.4713V11.236H63.3513V12.748H60.4713V16H57.8913V7.744ZM66.6671 16.096C65.9951 16.096 65.4711 15.88 65.0951 15.448C64.7191 15.016 64.5311 14.428 64.5311 13.684V9.988H67.0751V13.576C67.0751 13.76 67.1231 13.904 67.2191 14.008C67.3231 14.104 67.4551 14.152 67.6151 14.152C67.7751 14.152 67.9391 14.104 68.1071 14.008L68.2391 15.676C68.0631 15.812 67.8311 15.916 67.5431 15.988C67.2631 16.06 66.9711 16.096 66.6671 16.096ZM65.8031 9.088C65.4271 9.088 65.1071 8.972 64.8431 8.74C64.5871 8.5 64.4591 8.208 64.4591 7.864C64.4591 7.52 64.5951 7.232 64.8671 7C65.1391 6.768 65.4511 6.652 65.8031 6.652C66.1711 6.652 66.4871 6.772 66.7511 7.012C67.0231 7.252 67.1591 7.536 67.1591 7.864C67.1591 8.216 67.0231 8.508 66.7511 8.74C66.4791 8.972 66.1631 9.088 65.8031 9.088ZM68.9379 10.072H71.3499V11.296C71.8139 10.368 72.5499 9.904 73.5579 9.904C74.3259 9.904 74.9259 10.18 75.3579 10.732C75.7979 11.276 76.0179 12.032 76.0179 13V16H73.4979V12.748C73.4979 12.404 73.4219 12.14 73.2699 11.956C73.1259 11.772 72.9219 11.68 72.6579 11.68C72.4659 11.68 72.2779 11.744 72.0939 11.872C71.9099 11.992 71.7579 12.168 71.6379 12.4C71.5259 12.632 71.4699 12.896 71.4699 13.192V16H68.9379V10.072ZM79.8042 16.096C79.2602 16.096 78.7642 15.952 78.3162 15.664C77.8762 15.376 77.5282 14.996 77.2722 14.524C77.0162 14.044 76.8882 13.536 76.8882 13C76.8882 12.432 77.0202 11.912 77.2842 11.44C77.5562 10.96 77.9162 10.584 78.3642 10.312C78.8202 10.04 79.3042 9.904 79.8162 9.904C80.2802 9.904 80.6722 10 80.9922 10.192C81.3202 10.384 81.5842 10.692 81.7842 11.116V8.092L84.3162 7.72V16H81.7842V14.884C81.4082 15.692 80.7482 16.096 79.8042 16.096ZM80.5962 14.2C80.9322 14.2 81.2122 14.08 81.4362 13.84C81.6682 13.6 81.7842 13.32 81.7842 13V12.952C81.7842 12.64 81.6642 12.372 81.4242 12.148C81.1842 11.916 80.9082 11.8 80.5962 11.8C80.2602 11.8 79.9762 11.92 79.7442 12.16C79.5202 12.392 79.4082 12.672 79.4082 13C79.4082 13.336 79.5242 13.62 79.7562 13.852C79.9962 14.084 80.2762 14.2 80.5962 14.2ZM88.6514 16.096C87.9874 16.096 87.3954 15.964 86.8754 15.7C86.3634 15.428 85.9634 15.06 85.6754 14.596C85.3874 14.124 85.2434 13.592 85.2434 13C85.2434 12.392 85.3914 11.852 85.6874 11.38C85.9834 10.908 86.3834 10.544 86.8874 10.288C87.3914 10.032 87.9514 9.904 88.5674 9.904C89.1594 9.904 89.6634 10.036 90.0794 10.3C90.5034 10.556 90.8194 10.908 91.0274 11.356C91.2354 11.796 91.3394 12.292 91.3394 12.844C91.3394 12.988 91.3314 13.092 91.3154 13.156L87.7154 13.624C87.8114 13.904 87.9674 14.108 88.1834 14.236C88.3994 14.356 88.6834 14.416 89.0354 14.416C89.5794 14.416 90.1674 14.276 90.7994 13.996L91.0994 15.604C90.3554 15.932 89.5394 16.096 88.6514 16.096ZM89.4794 12.112C89.3514 11.608 89.0474 11.356 88.5674 11.356C88.2794 11.356 88.0514 11.464 87.8834 11.68C87.7154 11.896 87.6274 12.176 87.6194 12.52L89.4794 12.112ZM92.2113 10.072H94.7433V11.296C94.9273 10.824 95.1753 10.476 95.4873 10.252C95.8073 10.02 96.1793 9.904 96.6033 9.904L96.9513 11.86C96.1913 11.86 95.6313 11.944 95.2713 12.112C94.9193 12.272 94.7433 12.528 94.7433 12.88V16H92.2113V10.072Z" fill="#222222"/>
</svg>
